<?xml version="1.0" encoding="UTF-8" standalone="no"?><!DOCTYPE svg PUBLIC "-//W3C//DTD SVG 1.1//EN" "http://www.w3.org/Graphics/SVG/1.1/DTD/svg11.dtd"><!-- Generated by graphviz version 2.40.1 (20161225.0304)
 --><!-- Title: G Pages: 1 --><svg xmlns="http://www.w3.org/2000/svg" xmlns:xlink="http://www.w3.org/1999/xlink" width="1184pt" height="563pt" viewBox="0.00 0.00 1184.12 563.41">
<g id="graph0" class="graph" transform="scale(1 1) rotate(0) translate(4 559.4146)">
<title>G</title>
<polygon fill="#ffffff" stroke="transparent" points="-4,4 -4,-559.4146 1180.116,-559.4146 1180.116,4 -4,4"/>
<g id="clust1" class="cluster">
<title>cluster_flask_app</title>
<polygon fill="#d3d3d3" stroke="#d3d3d3" points="8,-8 8,-470.6146 194,-470.6146 194,-8 8,-8"/>
<text text-anchor="middle" x="101" y="-454.0146" font-family="Times,serif" font-size="14.00" fill="#000000">Flask Application</text>
</g>
<g id="clust2" class="cluster">
<title>cluster_configuration</title>
<polygon fill="none" stroke="#ffa500" points="268,-164.8 268,-547.4146 420,-547.4146 420,-164.8 268,-164.8"/>
<text text-anchor="middle" x="344" y="-530.8146" font-family="Times,serif" font-size="14.00" fill="#000000">Configuration</text>
</g>
<g id="clust3" class="cluster">
<title>cluster_database</title>
<polygon fill="none" stroke="#0000ff" points="602,-8 602,-385.8146 828,-385.8146 828,-8 602,-8"/>
<text text-anchor="middle" x="715" y="-369.2146" font-family="Times,serif" font-size="14.00" fill="#000000">Database Functions</text>
</g>
<g id="clust4" class="cluster">
<title>cluster_request_handlers</title>
<polygon fill="none" stroke="#00ff00" points="618,-393.8146 618,-547.4146 770,-547.4146 770,-393.8146 618,-393.8146"/>
<text text-anchor="middle" x="694" y="-530.8146" font-family="Times,serif" font-size="14.00" fill="#000000">Request Handlers</text>
</g>
<g id="clust5" class="cluster">
<title>cluster_page_routes</title>
<polygon fill="none" stroke="#a020f0" points="428,-80 428,-470.6146 524,-470.6146 524,-80 428,-80"/>
<text text-anchor="middle" x="476" y="-454.0146" font-family="Times,serif" font-size="14.00" fill="#000000">Page Routes</text>
</g>
<g id="clust6" class="cluster">
<title>cluster_api_routes</title>
<polygon fill="none" stroke="#ff0000" points="906,-164.8 906,-385.8146 1036,-385.8146 1036,-164.8 906,-164.8"/>
<text text-anchor="middle" x="971" y="-369.2146" font-family="Times,serif" font-size="14.00" fill="#000000">API Routes</text>
</g>
<g id="clust7" class="cluster">
<title>cluster_security</title>
<polygon fill="none" stroke="#ffff00" points="884,-8 884,-156.8 1050,-156.8 1050,-8 884,-8"/>
<text text-anchor="middle" x="967" y="-140.2" font-family="Times,serif" font-size="14.00" fill="#000000">Security Functions</text>
</g>
<!-- configuration -->
<g id="node1" class="node">
<title>configuration</title>
<ellipse fill="#ffffff" stroke="#ffffff" cx="123" cy="-419.8146" rx="63.1228" ry="18"/>
<text text-anchor="middle" x="123" y="-415.6146" font-family="Times,serif" font-size="14.00" fill="#000000">configuration</text>
</g>
<!-- database_functions -->
<g id="node2" class="node">
<title>database_functions</title>
<ellipse fill="#ffffff" stroke="#ffffff" cx="101" cy="-335.0146" rx="85.0928" ry="18"/>
<text text-anchor="middle" x="101" y="-330.8146" font-family="Times,serif" font-size="14.00" fill="#000000">database_functions</text>
</g>
<!-- configuration&#45;&gt;database_functions -->
<g id="edge1" class="edge">
<title>configuration-&gt;database_functions</title>
<path fill="none" stroke="#000000" d="M112.6984,-401.8307C108.648,-390.6638 104.6039,-376.0693 101.9468,-363.3699"/>
<polygon fill="#000000" stroke="#000000" points="105.3375,-362.4584 100.0715,-353.2649 98.455,-363.7357 105.3375,-362.4584"/>
</g>
<!-- configuration&#45;&gt;database_functions -->
<g id="edge23" class="edge">
<title>configuration-&gt;database_functions</title>
<path fill="none" stroke="#000000" d="M123.9047,-401.4143C122.1091,-390.1139 118.5304,-375.4223 114.5676,-362.7325"/>
<polygon fill="#000000" stroke="#000000" points="117.8313,-361.4564 111.3339,-353.0877 111.1944,-363.6816 117.8313,-361.4564"/>
</g>
<!-- config_sqlite3 -->
<g id="node9" class="node">
<title>config_sqlite3</title>
<ellipse fill="#d3d3d3" stroke="#000000" cx="346" cy="-335.0146" rx="66.0723" ry="18"/>
<text text-anchor="middle" x="346" y="-330.8146" font-family="Times,serif" font-size="14.00" fill="#000000">config_sqlite3</text>
</g>
<!-- configuration&#45;&gt;config_sqlite3 -->
<g id="edge34" class="edge">
<title>configuration-&gt;config_sqlite3</title>
<path fill="none" stroke="#000000" d="M178.3361,-411.1071C205.4351,-405.7373 238.1429,-397.579 266,-385.8146 283.1953,-378.5528 300.862,-367.7501 315.2049,-357.9713"/>
<polygon fill="#000000" stroke="#000000" points="317.479,-360.6521 323.672,-352.0557 313.4699,-354.9139 317.479,-360.6521"/>
</g>
<!-- config_hashlib -->
<g id="node10" class="node">
<title>config_hashlib</title>
<ellipse fill="#d3d3d3" stroke="#000000" cx="344" cy="-262.9073" rx="68.3613" ry="18"/>
<text text-anchor="middle" x="344" y="-258.7073" font-family="Times,serif" font-size="14.00" fill="#000000">config_hashlib</text>
</g>
<!-- configuration&#45;&gt;config_hashlib -->
<g id="edge35" class="edge">
<title>configuration-&gt;config_hashlib</title>
<path fill="none" stroke="#000000" d="M176.4324,-410.2271C194.1472,-405.1358 213.121,-397.4262 228,-385.8146 256.4269,-363.6302 246.5326,-343.502 271,-317.0146 281.8715,-305.2456 295.6066,-294.2987 308.2222,-285.3739"/>
<polygon fill="#000000" stroke="#000000" points="310.4658,-288.079 316.7282,-279.533 306.5033,-282.3085 310.4658,-288.079"/>
</g>
<!-- config_flask -->
<g id="node11" class="node">
<title>config_flask</title>
<ellipse fill="#d3d3d3" stroke="#000000" cx="339" cy="-190.8" rx="59.1103" ry="18"/>
<text text-anchor="middle" x="339" y="-186.6" font-family="Times,serif" font-size="14.00" fill="#000000">config_flask</text>
</g>
<!-- configuration&#45;&gt;config_flask -->
<g id="edge33" class="edge">
<title>configuration-&gt;config_flask</title>
<path fill="none" stroke="#000000" d="M164.5533,-406.0106C175.4225,-400.9354 186.4702,-394.2929 195,-385.8146 219.0528,-361.907 212.6047,-347.2321 228,-317.0146 244.5591,-284.513 243.189,-272.4332 267,-244.8 277.4418,-232.6821 291.0466,-221.6203 303.6147,-212.708"/>
<polygon fill="#000000" stroke="#000000" points="305.8276,-215.4345 312.0984,-206.8947 301.8709,-209.66 305.8276,-215.4345"/>
</g>
<!-- request_handlers -->
<g id="node3" class="node">
<title>request_handlers</title>
<ellipse fill="#ffffff" stroke="#ffffff" cx="101" cy="-262.9073" rx="76.4246" ry="18"/>
<text text-anchor="middle" x="101" y="-258.7073" font-family="Times,serif" font-size="14.00" fill="#000000">request_handlers</text>
</g>
<!-- database_functions&#45;&gt;request_handlers -->
<g id="edge2" class="edge">
<title>database_functions-&gt;request_handlers</title>
<path fill="none" stroke="#000000" d="M95.0476,-316.8189C94.2914,-309.0477 94.0729,-299.7956 94.3921,-291.1686"/>
<polygon fill="#000000" stroke="#000000" points="97.8907,-291.3036 95.0482,-281.0972 90.9055,-290.8485 97.8907,-291.3036"/>
</g>
<!-- database_functions&#45;&gt;request_handlers -->
<g id="edge24" class="edge">
<title>database_functions-&gt;request_handlers</title>
<path fill="none" stroke="#000000" d="M106.9524,-316.8189C107.7086,-309.0477 107.9271,-299.7956 107.6079,-291.1686"/>
<polygon fill="#000000" stroke="#000000" points="111.0945,-290.8485 106.9518,-281.0972 104.1093,-291.3036 111.0945,-290.8485"/>
</g>
<!-- page_routes -->
<g id="node4" class="node">
<title>page_routes</title>
<ellipse fill="#ffffff" stroke="#ffffff" cx="87" cy="-190.8" rx="57.8868" ry="18"/>
<text text-anchor="middle" x="87" y="-186.6" font-family="Times,serif" font-size="14.00" fill="#000000">page_routes</text>
</g>
<!-- request_handlers&#45;&gt;page_routes -->
<g id="edge3" class="edge">
<title>request_handlers-&gt;page_routes</title>
<path fill="none" stroke="#000000" d="M91.5148,-244.7116C89.2498,-236.9404 87.235,-227.6883 85.8792,-219.0613"/>
<polygon fill="#000000" stroke="#000000" points="89.3307,-218.4598 84.5798,-208.9899 82.3882,-219.3556 89.3307,-218.4598"/>
</g>
<!-- request_handlers&#45;&gt;page_routes -->
<g id="edge25" class="edge">
<title>request_handlers-&gt;page_routes</title>
<path fill="none" stroke="#000000" d="M103.4196,-244.7116C102.6529,-236.795 101.0298,-227.3416 98.9826,-218.5778"/>
<polygon fill="#000000" stroke="#000000" points="102.3262,-217.5295 96.4104,-208.7401 95.5539,-219.3003 102.3262,-217.5295"/>
</g>
<!-- api_routes -->
<g id="node5" class="node">
<title>api_routes</title>
<ellipse fill="#ffffff" stroke="#ffffff" cx="119" cy="-106" rx="51.0242" ry="18"/>
<text text-anchor="middle" x="119" y="-101.8" font-family="Times,serif" font-size="14.00" fill="#000000">api_routes</text>
</g>
<!-- request_handlers&#45;&gt;api_routes -->
<g id="edge26" class="edge">
<title>request_handlers-&gt;api_routes</title>
<path fill="none" stroke="#000000" d="M124.9324,-245.6899C136.0188,-236.211 148.037,-223.4091 154,-208.8 161.3901,-190.6946 159.187,-183.6551 154,-164.8 150.8155,-153.2239 144.6906,-141.6239 138.4433,-131.8229"/>
<polygon fill="#000000" stroke="#000000" points="141.244,-129.716 132.7523,-123.3801 135.4395,-133.6285 141.244,-129.716"/>
</g>
<!-- page_routes&#45;&gt;api_routes -->
<g id="edge4" class="edge">
<title>page_routes-&gt;api_routes</title>
<path fill="none" stroke="#000000" d="M93.7864,-172.8161C98.1138,-161.3484 103.8053,-146.2659 108.6856,-133.3332"/>
<polygon fill="#000000" stroke="#000000" points="111.9674,-134.5497 112.2234,-123.958 105.4182,-132.0783 111.9674,-134.5497"/>
</g>
<!-- security_functions -->
<g id="node6" class="node">
<title>security_functions</title>
<ellipse fill="#ffffff" stroke="#ffffff" cx="104" cy="-34" rx="82.243" ry="18"/>
<text text-anchor="middle" x="104" y="-29.8" font-family="Times,serif" font-size="14.00" fill="#000000">security_functions</text>
</g>
<!-- page_routes&#45;&gt;security_functions -->
<g id="edge27" class="edge">
<title>page_routes-&gt;security_functions</title>
<path fill="none" stroke="#000000" d="M69.0031,-173.5674C64.9294,-168.5849 61.1691,-162.846 59,-156.8 47.4735,-124.6718 46.1112,-111.6064 59,-80 62.1441,-72.2898 67.2718,-65.1701 72.9615,-58.9505"/>
<polygon fill="#000000" stroke="#000000" points="75.7483,-61.1146 80.362,-51.5771 70.8076,-56.1558 75.7483,-61.1146"/>
</g>
<!-- api_routes&#45;&gt;security_functions -->
<g id="edge5" class="edge">
<title>api_routes-&gt;security_functions</title>
<path fill="none" stroke="#000000" d="M109.3764,-88.2022C106.9378,-80.3005 104.7329,-70.811 103.233,-61.9959"/>
<polygon fill="#000000" stroke="#000000" points="106.6979,-61.5005 101.8244,-52.0931 99.7676,-62.4864 106.6979,-61.5005"/>
</g>
<!-- api_routes&#45;&gt;security_functions -->
<g id="edge28" class="edge">
<title>api_routes-&gt;security_functions</title>
<path fill="none" stroke="#000000" d="M121.1673,-87.8314C120.2908,-79.9266 118.5366,-70.4872 116.3678,-61.7365"/>
<polygon fill="#000000" stroke="#000000" points="119.6916,-60.6233 113.6592,-51.9134 112.9434,-62.484 119.6916,-60.6233"/>
</g>
<!-- config_os -->
<g id="node7" class="node">
<title>config_os</title>
<ellipse fill="#d3d3d3" stroke="#000000" cx="346" cy="-496.6146" rx="49.2396" ry="18"/>
<text text-anchor="middle" x="346" y="-492.4146" font-family="Times,serif" font-size="14.00" fill="#000000">config_os</text>
</g>
<!-- config_sys -->
<g id="node8" class="node">
<title>config_sys</title>
<ellipse fill="#d3d3d3" stroke="#000000" cx="346" cy="-419.8146" rx="52.7507" ry="18"/>
<text text-anchor="middle" x="346" y="-415.6146" font-family="Times,serif" font-size="14.00" fill="#000000">config_sys</text>
</g>
<!-- config_os&#45;&gt;config_sys -->
<g id="edge6" class="edge">
<title>config_os-&gt;config_sys</title>
<path fill="none" stroke="#000000" d="M346,-478.4141C346,-469.3278 346,-458.1322 346,-447.9695"/>
<polygon fill="#000000" stroke="#000000" points="349.5001,-447.8844 346,-437.8845 342.5001,-447.8845 349.5001,-447.8844"/>
</g>
<!-- config_sys&#45;&gt;config_sqlite3 -->
<g id="edge7" class="edge">
<title>config_sys-&gt;config_sqlite3</title>
<path fill="none" stroke="#000000" d="M346,-401.4143C346,-390.2258 346,-375.7129 346,-363.11"/>
<polygon fill="#000000" stroke="#000000" points="349.5001,-363.0877 346,-353.0877 342.5001,-363.0877 349.5001,-363.0877"/>
</g>
<!-- config_sqlite3&#45;&gt;config_hashlib -->
<g id="edge8" class="edge">
<title>config_sqlite3-&gt;config_hashlib</title>
<path fill="none" stroke="#000000" d="M345.4953,-316.8189C345.2798,-309.0477 345.0231,-299.7956 344.7839,-291.1686"/>
<polygon fill="#000000" stroke="#000000" points="348.2805,-290.9963 344.5045,-281.0972 341.2832,-291.1904 348.2805,-290.9963"/>
</g>
<!-- config_hashlib&#45;&gt;config_flask -->
<g id="edge9" class="edge">
<title>config_hashlib-&gt;config_flask</title>
<path fill="none" stroke="#000000" d="M342.7383,-244.7116C342.1994,-236.9404 341.5579,-227.6883 340.9597,-219.0613"/>
<polygon fill="#000000" stroke="#000000" points="344.4448,-218.7238 340.2613,-208.9899 337.4615,-219.2081 344.4448,-218.7238"/>
</g>
<!-- connect_db -->
<g id="node12" class="node">
<title>connect_db</title>
<ellipse fill="#d3d3d3" stroke="#000000" cx="734" cy="-335.0146" rx="55.6024" ry="18"/>
<text text-anchor="middle" x="734" y="-330.8146" font-family="Times,serif" font-size="14.00" fill="#000000">connect_db</text>
</g>
<!-- check_db_exists -->
<g id="node13" class="node">
<title>check_db_exists</title>
<ellipse fill="#d3d3d3" stroke="#000000" cx="705" cy="-262.9073" rx="74.7226" ry="18"/>
<text text-anchor="middle" x="705" y="-258.7073" font-family="Times,serif" font-size="14.00" fill="#000000">check_db_exists</text>
</g>
<!-- connect_db&#45;&gt;check_db_exists -->
<g id="edge10" class="edge">
<title>connect_db-&gt;check_db_exists</title>
<path fill="none" stroke="#000000" d="M720.9157,-317.1903C716.8974,-309.1908 712.8025,-299.5664 709.5722,-290.6573"/>
<polygon fill="#000000" stroke="#000000" points="712.8406,-289.3955 706.3425,-281.0274 706.2039,-291.6213 712.8406,-289.3955"/>
</g>
<!-- connect_db&#45;&gt;check_db_exists -->
<g id="edge36" class="edge">
<title>connect_db-&gt;check_db_exists</title>
<path fill="none" stroke="#000000" d="M732.6345,-316.8189C730.1685,-308.7302 726.4747,-299.0372 722.5082,-290.1146"/>
<polygon fill="#000000" stroke="#000000" points="725.5705,-288.4021 718.1424,-280.8474 719.238,-291.3854 725.5705,-288.4021"/>
</g>
<!-- init_db -->
<g id="node14" class="node">
<title>init_db</title>
<ellipse fill="#d3d3d3" stroke="#000000" cx="728" cy="-190.8" rx="38.303" ry="18"/>
<text text-anchor="middle" x="728" y="-186.6" font-family="Times,serif" font-size="14.00" fill="#000000">init_db</text>
</g>
<!-- check_db_exists&#45;&gt;init_db -->
<g id="edge11" class="edge">
<title>check_db_exists-&gt;init_db</title>
<path fill="none" stroke="#000000" d="M710.8039,-244.7116C713.3565,-236.709 716.41,-227.1359 719.2308,-218.2923"/>
<polygon fill="#000000" stroke="#000000" points="722.5732,-219.3308 722.2777,-208.7401 715.9043,-217.2036 722.5732,-219.3308"/>
</g>
<!-- init_db&#45;&gt;connect_db -->
<g id="edge37" class="edge">
<title>init_db-&gt;connect_db</title>
<path fill="none" stroke="#000000" d="M752.2987,-204.983C765.8383,-214.3713 781.4506,-228.0345 789,-244.8 795.6085,-259.4761 795.2276,-266.1728 789,-281.0146 784.0247,-292.8719 775.035,-303.4362 765.7457,-312.0074"/>
<polygon fill="#000000" stroke="#000000" points="763.2436,-309.5433 757.9538,-318.7231 767.8136,-314.8457 763.2436,-309.5433"/>
</g>
<!-- query_db -->
<g id="node15" class="node">
<title>query_db</title>
<ellipse fill="#d3d3d3" stroke="#000000" cx="728" cy="-106" rx="47.5177" ry="18"/>
<text text-anchor="middle" x="728" y="-101.8" font-family="Times,serif" font-size="14.00" fill="#000000">query_db</text>
</g>
<!-- init_db&#45;&gt;query_db -->
<g id="edge12" class="edge">
<title>init_db-&gt;query_db</title>
<path fill="none" stroke="#000000" d="M728,-172.3997C728,-161.2112 728,-146.6983 728,-134.0954"/>
<polygon fill="#000000" stroke="#000000" points="731.5001,-134.0731 728,-124.0731 724.5001,-134.0731 731.5001,-134.0731"/>
</g>
<!-- query_db&#45;&gt;connect_db -->
<g id="edge38" class="edge">
<title>query_db-&gt;connect_db</title>
<path fill="none" stroke="#000000" d="M705.0891,-122.0171C663.7745,-152.9234 584.3442,-222.8714 621,-281.0146 633.6766,-301.1222 656.1334,-313.9039 677.7056,-321.9497"/>
<polygon fill="#000000" stroke="#000000" points="676.5951,-325.269 687.1898,-325.2189 678.8763,-318.6511 676.5951,-325.269"/>
</g>
<!-- get_user_id -->
<g id="node16" class="node">
<title>get_user_id</title>
<ellipse fill="#d3d3d3" stroke="#000000" cx="746" cy="-34" rx="56.1802" ry="18"/>
<text text-anchor="middle" x="746" y="-29.8" font-family="Times,serif" font-size="14.00" fill="#000000">get_user_id</text>
</g>
<!-- query_db&#45;&gt;get_user_id -->
<g id="edge13" class="edge">
<title>query_db-&gt;get_user_id</title>
<path fill="none" stroke="#000000" d="M732.5422,-87.8314C734.4884,-80.0463 736.8068,-70.7729 738.9663,-62.1347"/>
<polygon fill="#000000" stroke="#000000" points="742.3668,-62.9636 741.3967,-52.4133 735.5758,-61.2658 742.3668,-62.9636"/>
</g>
<!-- get_user_id&#45;&gt;connect_db -->
<g id="edge39" class="edge">
<title>get_user_id-&gt;connect_db</title>
<path fill="none" stroke="#000000" d="M764.9264,-50.9863C772.5445,-58.9834 780.5639,-69.145 785,-80 846.0834,-229.4683 814.1504,-243.7258 797,-281.0146 791.148,-293.7382 780.6549,-304.5858 769.8898,-313.1472"/>
<polygon fill="#000000" stroke="#000000" points="767.6217,-310.4718 761.677,-319.2417 771.7932,-316.0931 767.6217,-310.4718"/>
</g>
<!-- before_request -->
<g id="node17" class="node">
<title>before_request</title>
<ellipse fill="#d3d3d3" stroke="#000000" cx="694" cy="-496.6146" rx="68.3189" ry="18"/>
<text text-anchor="middle" x="694" y="-492.4146" font-family="Times,serif" font-size="14.00" fill="#000000">before_request</text>
</g>
<!-- before_request&#45;&gt;connect_db -->
<g id="edge40" class="edge">
<title>before_request-&gt;connect_db</title>
<path fill="none" stroke="#000000" d="M739.4032,-482.9656C748.9823,-479.1592 757.089,-474.8901 760,-470.6146 782.2767,-437.896 764.9971,-390.9676 749.9229,-361.7743"/>
<polygon fill="#000000" stroke="#000000" points="752.9927,-360.0929 745.1591,-352.9596 746.8345,-363.4211 752.9927,-360.0929"/>
</g>
<!-- after_request -->
<g id="node18" class="node">
<title>after_request</title>
<ellipse fill="#d3d3d3" stroke="#000000" cx="690" cy="-419.8146" rx="61.3723" ry="18"/>
<text text-anchor="middle" x="690" y="-415.6146" font-family="Times,serif" font-size="14.00" fill="#000000">after_request</text>
</g>
<!-- before_request&#45;&gt;after_request -->
<g id="edge14" class="edge">
<title>before_request-&gt;after_request</title>
<path fill="none" stroke="#000000" d="M693.0521,-478.4141C692.5788,-469.3278 691.9957,-458.1322 691.4664,-447.9695"/>
<polygon fill="#000000" stroke="#000000" points="694.9566,-447.6889 690.9411,-437.8845 687.9661,-448.053 694.9566,-447.6889"/>
</g>
<!-- after_request&#45;&gt;connect_db -->
<g id="edge41" class="edge">
<title>after_request-&gt;connect_db</title>
<path fill="none" stroke="#000000" d="M699.3313,-401.8307C705.3398,-390.2506 713.2609,-374.9845 720.0147,-361.9681"/>
<polygon fill="#000000" stroke="#000000" points="723.1832,-363.4608 724.6822,-352.9726 716.9698,-360.2369 723.1832,-363.4608"/>
</g>
<!-- search -->
<g id="node19" class="node">
<title>search</title>
<ellipse fill="#d3d3d3" stroke="#000000" cx="480" cy="-419.8146" rx="35.8921" ry="18"/>
<text text-anchor="middle" x="480" y="-415.6146" font-family="Times,serif" font-size="14.00" fill="#000000">search</text>
</g>
<!-- search&#45;&gt;query_db -->
<g id="edge42" class="edge">
<title>search-&gt;query_db</title>
<path fill="none" stroke="#000000" d="M501.294,-405.1811C508.207,-399.6909 515.5036,-393.0196 521,-385.8146 586.3925,-300.0941 547.7771,-243.9365 621,-164.8 638.2424,-146.1651 662.7731,-132.0961 683.9977,-122.3998"/>
<polygon fill="#000000" stroke="#000000" points="685.4138,-125.6006 693.1688,-118.3818 682.6047,-119.1889 685.4138,-125.6006"/>
</g>
<!-- about -->
<g id="node20" class="node">
<title>about</title>
<ellipse fill="#d3d3d3" stroke="#000000" cx="480" cy="-335.0146" rx="32.4846" ry="18"/>
<text text-anchor="middle" x="480" y="-330.8146" font-family="Times,serif" font-size="14.00" fill="#000000">about</text>
</g>
<!-- search&#45;&gt;about -->
<g id="edge15" class="edge">
<title>search-&gt;about</title>
<path fill="none" stroke="#000000" d="M480,-401.4143C480,-390.2258 480,-375.7129 480,-363.11"/>
<polygon fill="#000000" stroke="#000000" points="483.5001,-363.0877 480,-353.0877 476.5001,-363.0877 483.5001,-363.0877"/>
</g>
<!-- login -->
<g id="node21" class="node">
<title>login</title>
<ellipse fill="#d3d3d3" stroke="#000000" cx="480" cy="-262.9073" rx="30.7789" ry="18"/>
<text text-anchor="middle" x="480" y="-258.7073" font-family="Times,serif" font-size="14.00" fill="#000000">login</text>
</g>
<!-- about&#45;&gt;login -->
<g id="edge16" class="edge">
<title>about-&gt;login</title>
<path fill="none" stroke="#000000" d="M480,-316.8189C480,-309.0477 480,-299.7956 480,-291.1686"/>
<polygon fill="#000000" stroke="#000000" points="483.5001,-291.0972 480,-281.0972 476.5001,-291.0972 483.5001,-291.0972"/>
</g>
<!-- login&#45;&gt;query_db -->
<g id="edge43" class="edge">
<title>login-&gt;query_db</title>
<path fill="none" stroke="#000000" d="M493.8032,-246.6761C516.2723,-220.3849 559.1471,-170.8037 568,-164.8 601.1844,-142.2957 644.0585,-127.1422 677.0715,-117.8622"/>
<polygon fill="#000000" stroke="#000000" points="678.2469,-121.1698 686.9786,-115.1691 676.4107,-114.4149 678.2469,-121.1698"/>
</g>
<!-- register -->
<g id="node22" class="node">
<title>register</title>
<ellipse fill="#d3d3d3" stroke="#000000" cx="476" cy="-190.8" rx="39.9819" ry="18"/>
<text text-anchor="middle" x="476" y="-186.6" font-family="Times,serif" font-size="14.00" fill="#000000">register</text>
</g>
<!-- login&#45;&gt;register -->
<g id="edge17" class="edge">
<title>login-&gt;register</title>
<path fill="none" stroke="#000000" d="M478.9906,-244.7116C478.5595,-236.9404 478.0463,-227.6883 477.5677,-219.0613"/>
<polygon fill="#000000" stroke="#000000" points="481.0576,-218.7807 477.009,-208.9899 474.0684,-219.1684 481.0576,-218.7807"/>
</g>
<!-- register&#45;&gt;query_db -->
<g id="edge44" class="edge">
<title>register-&gt;query_db</title>
<path fill="none" stroke="#000000" d="M502.2693,-177.1112C510.9659,-172.8614 520.7795,-168.3625 530,-164.8 579.3372,-145.7377 637.5518,-129.1217 678.0354,-118.4611"/>
<polygon fill="#000000" stroke="#000000" points="679.1362,-121.7912 687.9296,-115.8813 677.37,-115.0177 679.1362,-121.7912"/>
</g>
<!-- logout -->
<g id="node23" class="node">
<title>logout</title>
<ellipse fill="#d3d3d3" stroke="#000000" cx="476" cy="-106" rx="35.9368" ry="18"/>
<text text-anchor="middle" x="476" y="-101.8" font-family="Times,serif" font-size="14.00" fill="#000000">logout</text>
</g>
<!-- register&#45;&gt;logout -->
<g id="edge18" class="edge">
<title>register-&gt;logout</title>
<path fill="none" stroke="#000000" d="M476,-172.3997C476,-161.2112 476,-146.6983 476,-134.0954"/>
<polygon fill="#000000" stroke="#000000" points="479.5001,-134.0731 476,-124.0731 472.5001,-134.0731 479.5001,-134.0731"/>
</g>
<!-- api_search -->
<g id="node24" class="node">
<title>api_search</title>
<ellipse fill="#d3d3d3" stroke="#000000" cx="968" cy="-335.0146" rx="52.1463" ry="18"/>
<text text-anchor="middle" x="968" y="-330.8146" font-family="Times,serif" font-size="14.00" fill="#000000">api_search</text>
</g>
<!-- api_search&#45;&gt;query_db -->
<g id="edge45" class="edge">
<title>api_search-&gt;query_db</title>
<path fill="none" stroke="#000000" d="M949.961,-317.8013C907.5353,-277.3175 801.3625,-176.0045 752.8657,-129.7276"/>
<polygon fill="#000000" stroke="#000000" points="755.2471,-127.1621 745.5961,-122.7907 750.4146,-132.2264 755.2471,-127.1621"/>
</g>
<!-- api_login -->
<g id="node25" class="node">
<title>api_login</title>
<ellipse fill="#d3d3d3" stroke="#000000" cx="970" cy="-262.9073" rx="47.5332" ry="18"/>
<text text-anchor="middle" x="970" y="-258.7073" font-family="Times,serif" font-size="14.00" fill="#000000">api_login</text>
</g>
<!-- api_search&#45;&gt;api_login -->
<g id="edge19" class="edge">
<title>api_search-&gt;api_login</title>
<path fill="none" stroke="#000000" d="M968.5047,-316.8189C968.7202,-309.0477 968.9769,-299.7956 969.2161,-291.1686"/>
<polygon fill="#000000" stroke="#000000" points="972.7168,-291.1904 969.4955,-281.0972 965.7195,-290.9963 972.7168,-291.1904"/>
</g>
<!-- api_login&#45;&gt;query_db -->
<g id="edge46" class="edge">
<title>api_login-&gt;query_db</title>
<path fill="none" stroke="#000000" d="M949.3398,-246.6125C936.3316,-236.1341 919.3477,-222.0474 905,-208.8 884.9104,-190.2511 884.4868,-180.3563 862,-164.8 834.9258,-146.0702 800.926,-131.2357 773.9493,-121.1522"/>
<polygon fill="#000000" stroke="#000000" points="774.948,-117.791 764.3541,-117.6537 772.5502,-124.3675 774.948,-117.791"/>
</g>
<!-- api_register -->
<g id="node26" class="node">
<title>api_register</title>
<ellipse fill="#d3d3d3" stroke="#000000" cx="971" cy="-190.8" rx="56.7368" ry="18"/>
<text text-anchor="middle" x="971" y="-186.6" font-family="Times,serif" font-size="14.00" fill="#000000">api_register</text>
</g>
<!-- api_login&#45;&gt;api_register -->
<g id="edge20" class="edge">
<title>api_login-&gt;api_register</title>
<path fill="none" stroke="#000000" d="M970.2523,-244.7116C970.3601,-236.9404 970.4884,-227.6883 970.6081,-219.0613"/>
<polygon fill="#000000" stroke="#000000" points="974.1086,-219.0375 970.7477,-208.9899 967.1093,-218.9404 974.1086,-219.0375"/>
</g>
<!-- verify_password -->
<g id="node28" class="node">
<title>verify_password</title>
<ellipse fill="#d3d3d3" stroke="#000000" cx="967" cy="-34" rx="75.2829" ry="18"/>
<text text-anchor="middle" x="967" y="-29.8" font-family="Times,serif" font-size="14.00" fill="#000000">verify_password</text>
</g>
<!-- api_login&#45;&gt;verify_password -->
<g id="edge29" class="edge">
<title>api_login-&gt;verify_password</title>
<path fill="none" stroke="#000000" d="M997.2575,-247.9873C1011.5434,-238.6691 1027.916,-225.3038 1037,-208.8 1064.6333,-158.596 1071.1385,-129.9225 1043,-80 1037.0244,-69.3983 1027.5122,-60.9619 1017.2112,-54.3632"/>
<polygon fill="#000000" stroke="#000000" points="1018.835,-51.2585 1008.4332,-49.2453 1015.3092,-57.3057 1018.835,-51.2585"/>
</g>
<!-- api_register&#45;&gt;query_db -->
<g id="edge47" class="edge">
<title>api_register-&gt;query_db</title>
<path fill="none" stroke="#000000" d="M933.8376,-177.0195C922.9503,-173.0288 911.0133,-168.6985 900,-164.8 857.2196,-149.6565 808.2275,-132.9721 773.5017,-121.2564"/>
<polygon fill="#000000" stroke="#000000" points="774.249,-117.8149 763.6548,-117.9385 772.0137,-124.4485 774.249,-117.8149"/>
</g>
<!-- hash_password -->
<g id="node27" class="node">
<title>hash_password</title>
<ellipse fill="#d3d3d3" stroke="#000000" cx="964" cy="-106" rx="70.0674" ry="18"/>
<text text-anchor="middle" x="964" y="-101.8" font-family="Times,serif" font-size="14.00" fill="#000000">hash_password</text>
</g>
<!-- api_register&#45;&gt;hash_password -->
<g id="edge30" class="edge">
<title>api_register-&gt;hash_password</title>
<path fill="none" stroke="#000000" d="M969.4811,-172.3997C968.5575,-161.2112 967.3595,-146.6983 966.3192,-134.0954"/>
<polygon fill="#000000" stroke="#000000" points="969.8028,-133.7512 965.4919,-124.0731 962.8265,-134.3272 969.8028,-133.7512"/>
</g>
<!-- hash_password&#45;&gt;verify_password -->
<g id="edge21" class="edge">
<title>hash_password-&gt;verify_password</title>
<path fill="none" stroke="#000000" d="M964.757,-87.8314C965.0779,-80.131 965.4594,-70.9743 965.816,-62.4166"/>
<polygon fill="#000000" stroke="#000000" points="969.3133,-62.5503 966.2328,-52.4133 962.3194,-62.2589 969.3133,-62.5503"/>
</g>
<!-- start -->
<g id="node29" class="node">
<title>start</title>
<polygon fill="none" stroke="#000000" points="123,-514.6146 83.7627,-496.6146 123,-478.6146 162.2373,-496.6146 123,-514.6146"/>
<polyline fill="none" stroke="#000000" points="94.6698,-501.6182 94.6698,-491.611 "/>
<polyline fill="none" stroke="#000000" points="112.0929,-483.6182 133.9071,-483.6182 "/>
<polyline fill="none" stroke="#000000" points="151.3302,-491.611 151.3302,-501.6182 "/>
<polyline fill="none" stroke="#000000" points="133.9071,-509.611 112.0929,-509.611 "/>
<text text-anchor="middle" x="123" y="-492.4146" font-family="Times,serif" font-size="14.00" fill="#000000">start</text>
</g>
<!-- start&#45;&gt;configuration -->
<g id="edge22" class="edge">
<title>start-&gt;configuration</title>
<path fill="none" stroke="#000000" d="M123,-478.4141C123,-469.3278 123,-458.1322 123,-447.9695"/>
<polygon fill="#000000" stroke="#000000" points="126.5001,-447.8844 123,-437.8845 119.5001,-447.8845 126.5001,-447.8844"/>
</g>
<!-- main -->
<g id="node30" class="node">
<title>main</title>
<polygon fill="none" stroke="#000000" points="1128,-437.8146 1074,-437.8146 1074,-401.8146 1128,-401.8146 1128,-437.8146"/>
<text text-anchor="middle" x="1101" y="-415.6146" font-family="Times,serif" font-size="14.00" fill="#000000">main</text>
</g>
<!-- main&#45;&gt;connect_db -->
<g id="edge31" class="edge">
<title>main-&gt;connect_db</title>
<path fill="none" stroke="#000000" d="M1073.7474,-416.2542C1035.2123,-410.9723 962.7244,-400.1244 902,-385.8146 860.9693,-376.1456 815.2226,-362.0914 781.8396,-351.2154"/>
<polygon fill="#000000" stroke="#000000" points="782.9243,-347.8877 772.3315,-348.0947 780.7414,-354.5387 782.9243,-347.8877"/>
</g>
<!-- flask_run -->
<g id="node31" class="node">
<title>flask_run</title>
<polygon fill="none" stroke="#000000" points="1157.7022,-353.0146 1044.2978,-353.0146 1044.2978,-317.0146 1157.7022,-317.0146 1157.7022,-353.0146"/>
<text text-anchor="middle" x="1101" y="-330.8146" font-family="Times,serif" font-size="14.00" fill="#000000">Run Flask Server</text>
</g>
<!-- main&#45;&gt;flask_run -->
<g id="edge32" class="edge">
<title>main-&gt;flask_run</title>
<path fill="none" stroke="#000000" d="M1101,-401.4143C1101,-390.2258 1101,-375.7129 1101,-363.11"/>
<polygon fill="#000000" stroke="#000000" points="1104.5001,-363.0877 1101,-353.0877 1097.5001,-363.0877 1104.5001,-363.0877"/>
</g>
<!-- end -->
<g id="node32" class="node">
<title>end</title>
<polygon fill="none" stroke="#000000" points="1161.2152,-281.1225 1124.7848,-281.1225 1124.7848,-244.6921 1161.2152,-244.6921 1161.2152,-281.1225"/>
<polyline fill="none" stroke="#000000" points="1136.7848,-281.1225 1124.7848,-269.1225 "/>
<polyline fill="none" stroke="#000000" points="1124.7848,-256.6921 1136.7848,-244.6921 "/>
<polyline fill="none" stroke="#000000" points="1149.2152,-244.6921 1161.2152,-256.6921 "/>
<polyline fill="none" stroke="#000000" points="1161.2152,-269.1225 1149.2152,-281.1225 "/>
<text text-anchor="middle" x="1143" y="-258.7073" font-family="Times,serif" font-size="14.00" fill="#000000">end</text>
</g>
<!-- main&#45;&gt;end -->
<g id="edge48" class="edge">
<title>main-&gt;end</title>
<path fill="none" stroke="#000000" d="M1128.2325,-413.1434C1142.4247,-408.134 1158.5452,-399.6809 1167,-385.8146 1184.8423,-356.5524 1171.6101,-316.7234 1158.8081,-290.4373"/>
<polygon fill="#000000" stroke="#000000" points="1161.853,-288.705 1154.1693,-281.4103 1155.6269,-291.9044 1161.853,-288.705"/>
</g>
<!-- flask_run&#45;&gt;end -->
<g id="edge49" class="edge">
<title>flask_run-&gt;end</title>
<path fill="none" stroke="#000000" d="M1111.5984,-316.8189C1116.3735,-308.6207 1122.1087,-298.7744 1127.3635,-289.7526"/>
<polygon fill="#000000" stroke="#000000" points="1130.3962,-291.4999 1132.405,-281.0972 1124.3475,-287.9767 1130.3962,-291.4999"/>
</g>
</g>
</svg>